<?xml version="1.0" encoding="UTF-8"?>
<svg xmlns="http://www.w3.org/2000/svg" xmlns:xlink="http://www.w3.org/1999/xlink" width="506px" height="504px" viewBox="0 0 506 504" version="1.1">
<g id="surface1">
<path style="fill-rule:nonzero;fill:rgb(100%,100%,100%);fill-opacity:1;stroke-width:1;stroke-linecap:butt;stroke-linejoin:miter;stroke:rgb(0%,0%,0%);stroke-opacity:1;stroke-miterlimit:4;" d="M 76.793324 100.000775 L 206.695436 24.999225 L 249.99614 49.99845 L 293.296844 24.999225 L 423.195096 100.000775 L 423.195096 149.999225 L 466.49966 174.99845 L 466.49966 325.00155 L 423.195096 350.000775 L 423.195096 399.999225 L 293.296844 475.000775 L 249.99614 450.00155 L 206.695436 475.000775 L 76.793324 399.999225 L 76.793324 350.000775 L 33.49262 325.00155 L 33.49262 174.99845 L 76.793324 149.999225 Z M 76.793324 100.000775 " transform="matrix(1.012,0,0,1.008,0,0)"/>
<path style="fill:none;stroke-width:0.5;stroke-linecap:butt;stroke-linejoin:miter;stroke:rgb(0%,0%,0%);stroke-opacity:1;stroke-miterlimit:4;" d="M 250 44.99938 L 250 455.00062 " transform="matrix(1.012,0,0,1.008,0,0)"/>
<path style="fill:none;stroke-width:0.5;stroke-linecap:butt;stroke-linejoin:miter;stroke:rgb(0%,0%,0%);stroke-opacity:1;stroke-miterlimit:4;" d="M 206.699296 20.000155 L 206.699296 479.999845 " transform="matrix(1.012,0,0,1.008,0,0)"/>
<path style="fill:none;stroke-width:0.5;stroke-linecap:butt;stroke-linejoin:miter;stroke:rgb(0%,0%,0%);stroke-opacity:1;stroke-miterlimit:4;" d="M 163.398592 455.00062 L 163.398592 44.99938 " transform="matrix(1.012,0,0,1.008,0,0)"/>
<path style="fill:none;stroke-width:0.5;stroke-linecap:butt;stroke-linejoin:miter;stroke:rgb(0%,0%,0%);stroke-opacity:1;stroke-miterlimit:4;" d="M 120.101748 69.998605 L 120.101748 430.001395 " transform="matrix(1.012,0,0,1.008,0,0)"/>
<path style="fill:none;stroke-width:0.5;stroke-linecap:butt;stroke-linejoin:miter;stroke:rgb(0%,0%,0%);stroke-opacity:1;stroke-miterlimit:4;" d="M 76.793324 95.001705 L 76.793324 404.998295 " transform="matrix(1.012,0,0,1.008,0,0)"/>
<path style="fill:none;stroke-width:0.5;stroke-linecap:butt;stroke-linejoin:miter;stroke:rgb(0%,0%,0%);stroke-opacity:1;stroke-miterlimit:4;" d="M 33.49262 169.99938 L 33.49262 330.00062 " transform="matrix(1.012,0,0,1.008,0,0)"/>
<path style="fill:none;stroke-width:0.5;stroke-linecap:butt;stroke-linejoin:miter;stroke:rgb(0%,0%,0%);stroke-opacity:1;stroke-miterlimit:4;" d="M 293.300704 20.000155 L 293.300704 479.999845 " transform="matrix(1.012,0,0,1.008,0,0)"/>
<path style="fill:none;stroke-width:0.5;stroke-linecap:butt;stroke-linejoin:miter;stroke:rgb(0%,0%,0%);stroke-opacity:1;stroke-miterlimit:4;" d="M 336.601408 455.00062 L 336.601408 44.99938 " transform="matrix(1.012,0,0,1.008,0,0)"/>
<path style="fill:none;stroke-width:0.5;stroke-linecap:butt;stroke-linejoin:miter;stroke:rgb(0%,0%,0%);stroke-opacity:1;stroke-miterlimit:4;" d="M 379.898252 69.998605 L 379.898252 429.99752 " transform="matrix(1.012,0,0,1.008,0,0)"/>
<path style="fill:none;stroke-width:0.5;stroke-linecap:butt;stroke-linejoin:miter;stroke:rgb(0%,0%,0%);stroke-opacity:1;stroke-miterlimit:4;" d="M 423.210536 94.99783 L 423.210536 404.998295 " transform="matrix(1.012,0,0,1.008,0,0)"/>
<path style="fill:none;stroke-width:0.5;stroke-linecap:butt;stroke-linejoin:miter;stroke:rgb(0%,0%,0%);stroke-opacity:1;stroke-miterlimit:4;" d="M 466.51124 169.99938 L 466.51124 330.00062 " transform="matrix(1.012,0,0,1.008,0,0)"/>
<path style="fill:none;stroke-width:0.5;stroke-linecap:butt;stroke-linejoin:miter;stroke:rgb(0%,0%,0%);stroke-opacity:1;stroke-miterlimit:4;" d="M 427.529799 147.49969 L 72.458622 352.50031 " transform="matrix(1.012,0,0,1.008,0,0)"/>
<path style="fill:none;stroke-width:0.5;stroke-linecap:butt;stroke-linejoin:miter;stroke:rgb(0%,0%,0%);stroke-opacity:1;stroke-miterlimit:4;" d="M 427.541378 97.497365 L 29.169497 327.49721 " transform="matrix(1.012,0,0,1.008,0,0)"/>
<path style="fill:none;stroke-width:0.5;stroke-linecap:butt;stroke-linejoin:miter;stroke:rgb(0%,0%,0%);stroke-opacity:1;stroke-miterlimit:4;" d="M 29.161777 277.49876 L 384.232955 72.49814 " transform="matrix(1.012,0,0,1.008,0,0)"/>
<path style="fill:none;stroke-width:0.5;stroke-linecap:butt;stroke-linejoin:miter;stroke:rgb(0%,0%,0%);stroke-opacity:1;stroke-miterlimit:4;" d="M 340.928391 47.498915 L 29.161777 227.50031 " transform="matrix(1.012,0,0,1.008,0,0)"/>
<path style="fill:none;stroke-width:0.5;stroke-linecap:butt;stroke-linejoin:miter;stroke:rgb(0%,0%,0%);stroke-opacity:1;stroke-miterlimit:4;" d="M 297.631546 22.49969 L 29.161777 177.497985 " transform="matrix(1.012,0,0,1.008,0,0)"/>
<path style="fill:none;stroke-width:0.5;stroke-linecap:butt;stroke-linejoin:miter;stroke:rgb(0%,0%,0%);stroke-opacity:1;stroke-miterlimit:4;" d="M 211.030138 22.49969 L 72.470201 102.50031 " transform="matrix(1.012,0,0,1.008,0,0)"/>
<path style="fill:none;stroke-width:0.5;stroke-linecap:butt;stroke-linejoin:miter;stroke:rgb(0%,0%,0%);stroke-opacity:1;stroke-miterlimit:4;" d="M 470.838223 172.498915 L 72.470201 402.49876 " transform="matrix(1.012,0,0,1.008,0,0)"/>
<path style="fill:none;stroke-width:0.5;stroke-linecap:butt;stroke-linejoin:miter;stroke:rgb(0%,0%,0%);stroke-opacity:1;stroke-miterlimit:4;" d="M 115.770905 427.50186 L 470.838223 222.50124 " transform="matrix(1.012,0,0,1.008,0,0)"/>
<path style="fill:none;stroke-width:0.5;stroke-linecap:butt;stroke-linejoin:miter;stroke:rgb(0%,0%,0%);stroke-opacity:1;stroke-miterlimit:4;" d="M 470.838223 272.49969 L 159.071609 452.501085 " transform="matrix(1.012,0,0,1.008,0,0)"/>
<path style="fill:none;stroke-width:0.5;stroke-linecap:butt;stroke-linejoin:miter;stroke:rgb(0%,0%,0%);stroke-opacity:1;stroke-miterlimit:4;" d="M 470.838223 322.49814 L 202.368454 477.50031 " transform="matrix(1.012,0,0,1.008,0,0)"/>
<path style="fill:none;stroke-width:0.5;stroke-linecap:butt;stroke-linejoin:miter;stroke:rgb(0%,0%,0%);stroke-opacity:1;stroke-miterlimit:4;" d="M 427.541378 397.49969 L 288.981441 477.50031 " transform="matrix(1.012,0,0,1.008,0,0)"/>
<path style="fill:none;stroke-width:0.5;stroke-linecap:butt;stroke-linejoin:miter;stroke:rgb(0%,0%,0%);stroke-opacity:1;stroke-miterlimit:4;" d="M 72.466341 147.49969 L 427.533659 352.50031 " transform="matrix(1.012,0,0,1.008,0,0)"/>
<path style="fill:none;stroke-width:0.5;stroke-linecap:butt;stroke-linejoin:miter;stroke:rgb(0%,0%,0%);stroke-opacity:1;stroke-miterlimit:4;" d="M 29.161777 172.498915 L 427.533659 402.49876 " transform="matrix(1.012,0,0,1.008,0,0)"/>
<path style="fill:none;stroke-width:0.5;stroke-linecap:butt;stroke-linejoin:miter;stroke:rgb(0%,0%,0%);stroke-opacity:1;stroke-miterlimit:4;" d="M 384.229095 427.50186 L 29.161777 222.50124 " transform="matrix(1.012,0,0,1.008,0,0)"/>
<path style="fill:none;stroke-width:0.5;stroke-linecap:butt;stroke-linejoin:miter;stroke:rgb(0%,0%,0%);stroke-opacity:1;stroke-miterlimit:4;" d="M 29.161777 272.49969 L 340.93225 452.501085 " transform="matrix(1.012,0,0,1.008,0,0)"/>
<path style="fill:none;stroke-width:0.5;stroke-linecap:butt;stroke-linejoin:miter;stroke:rgb(0%,0%,0%);stroke-opacity:1;stroke-miterlimit:4;" d="M 29.161777 322.49814 L 297.631546 477.50031 " transform="matrix(1.012,0,0,1.008,0,0)"/>
<path style="fill:none;stroke-width:0.5;stroke-linecap:butt;stroke-linejoin:miter;stroke:rgb(0%,0%,0%);stroke-opacity:1;stroke-miterlimit:4;" d="M 72.466341 397.49969 L 211.026278 477.50031 " transform="matrix(1.012,0,0,1.008,0,0)"/>
<path style="fill:none;stroke-width:0.5;stroke-linecap:butt;stroke-linejoin:miter;stroke:rgb(0%,0%,0%);stroke-opacity:1;stroke-miterlimit:4;" d="M 72.462481 97.497365 L 470.834363 327.49721 " transform="matrix(1.012,0,0,1.008,0,0)"/>
<path style="fill:none;stroke-width:0.5;stroke-linecap:butt;stroke-linejoin:miter;stroke:rgb(0%,0%,0%);stroke-opacity:1;stroke-miterlimit:4;" d="M 470.838223 277.49876 L 115.770905 72.49814 " transform="matrix(1.012,0,0,1.008,0,0)"/>
<path style="fill:none;stroke-width:0.5;stroke-linecap:butt;stroke-linejoin:miter;stroke:rgb(0%,0%,0%);stroke-opacity:1;stroke-miterlimit:4;" d="M 159.071609 47.498915 L 470.838223 227.50031 " transform="matrix(1.012,0,0,1.008,0,0)"/>
<path style="fill:none;stroke-width:0.5;stroke-linecap:butt;stroke-linejoin:miter;stroke:rgb(0%,0%,0%);stroke-opacity:1;stroke-miterlimit:4;" d="M 202.368454 22.49969 L 470.838223 177.497985 " transform="matrix(1.012,0,0,1.008,0,0)"/>
<path style="fill:none;stroke-width:0.5;stroke-linecap:butt;stroke-linejoin:miter;stroke:rgb(0%,0%,0%);stroke-opacity:1;stroke-miterlimit:4;" d="M 288.969862 22.49969 L 427.529799 102.50031 " transform="matrix(1.012,0,0,1.008,0,0)"/>
</g>
</svg>
